<?xml version="1.0"?>
<svg xmlns="http://www.w3.org/2000/svg" id="outline" viewBox="0 0 512 512" width="512" height="512"><path d="M251.6,108.344l-30.571,12.228c-.065.026-.123.064-.187.092-.09.039-.183.066-.272.108l-67.355,31.962a22.295,22.295,0,0,0,17.936,40.821c.08-.034.161-.07.24-.107l55.8-26.108,23.767-9.506L224.41,237.47A8,8,0,0,0,232,248v16a39.782,39.782,0,0,0,2.941,15.031l-33.169,59.706-78.109,62.487-17.047,8.524a28.839,28.839,0,0,0-15.348,31.383l4.887,24.438a8,8,0,0,0,1.189,2.869l16,24A8,8,0,0,0,120,496h16.631a20,20,0,0,0,19.4-24.851L152,455.015V436l88.408-66.308a39.741,39.741,0,0,0,9.288-9.815s13.1-19.652,13.164-19.761L284.53,304h43.426l.041,0,.026,0h1.847l-39.588,65.981a50.819,50.819,0,0,0-23.529,28.46h0a18.7,18.7,0,0,0,6.036,20.434L307,446.247A8,8,0,0,0,312,448h5.578a26.422,26.422,0,0,0,21.984-41.079L329.747,392.2l54.984-75.6A37.759,37.759,0,0,0,392,294.245v-1.934a37.818,37.818,0,0,0-23.888-35.282l-54.137-21.655,10.3-30.908,14.715,9.81c.119.132.236.266.363.393a30.521,30.521,0,0,0,41.837,1.2l46.557-41.886a25.2,25.2,0,0,0-32.937-38.132l-34.374,29.277-22.419-22.419A40.3,40.3,0,0,0,366.8,113.7a32,32,0,0,0-3.912-63.14q-.069-.5-.151-1a40,40,0,1,0-68.87,33.588A39.851,39.851,0,0,0,288,104c0,.535.026,1.069.047,1.6a61.16,61.16,0,0,0-13.891-1.6A60.461,60.461,0,0,0,251.6,108.344ZM216,154.911l-51.248,23.978a6.3,6.3,0,0,1-7.621-2.334,6.3,6.3,0,0,1,2.681-9.244l.181-.083L216,140.651ZM139.783,478.462A3.933,3.933,0,0,1,136.631,480h-12.35l-12.747-19.121-4.577-22.886a12.805,12.805,0,0,1,6.815-13.935l11.489-5.744L136,434.422V456a7.977,7.977,0,0,0,.239,1.94l4.273,17.09A3.936,3.936,0,0,1,139.783,478.462Zm6.183-57.936-7.241-10.861L166.184,387.7l7.85,11.776Zm90.414-69.518a23.85,23.85,0,0,1-5.569,5.882l-43.957,32.969-8.129-12.194L213,350.247a7.993,7.993,0,0,0,2-2.362l10.193-18.348,19.13,9.566Zm16.571-25.477-19.987-9.994,12.178-21.921a39.89,39.89,0,0,0,20.989,9.95ZM317.578,432h-2.771l-32.024-25.618a2.639,2.639,0,0,1-.85-2.882,34.925,34.925,0,0,1,13.761-18.089l18.537,12.358L326.25,415.8a10.423,10.423,0,0,1-8.672,16.2Zm.469-50.917-5.631-3.754-5.632-3.754,21.474-35.789,14.33,9.554Zm32.915-89.024A8,8,0,0,0,344,288h-4.184l8.641-21.6,13.713,5.485A21.9,21.9,0,0,1,376,292.311v1.934a21.86,21.86,0,0,1-4.208,12.939L352.006,334.39,336.5,324.051l14.361-23.935A8,8,0,0,0,350.962,292.059Zm-17.361-31.6L322.584,288H272a24.027,24.027,0,0,1-24-24V248h54.459Zm32.821-79.413,38.7-32.961a9.2,9.2,0,0,1,11.961,13.97l-46.557,41.886a14.5,14.5,0,0,1-16.508,1.914ZM328,128a24.053,24.053,0,0,1-5.268-.582l-5.629-5.629a61.157,61.157,0,0,0-11.436-8.993,23.954,23.954,0,0,1,1.266-20.265,39.716,39.716,0,0,0,22.77,2.951q.494-.079.985-.173a32.165,32.165,0,0,0,19.58,17.621A24.127,24.127,0,0,1,328,128Zm-8.608-95.682a24.028,24.028,0,0,1,27.772,25.887,8,8,0,0,0,9.585,8.563c.221-.046.441-.091.665-.128h0a16,16,0,1,1-13.212,18.374c-.037-.224-.064-.448-.091-.672a8,8,0,0,0-11.165-6.373,24.1,24.1,0,0,1-5.825,1.722,24,24,0,1,1-7.733-47.373ZM295.18,125.225c.173.109.352.2.533.3a44.893,44.893,0,0,1,10.076,7.578l7.069,7.069.037.037,37.371,37.371-4.967,9.933-4.4,8.8-16.459-10.973a8,8,0,0,0-12.028,4.126L298.234,232H243.1l28.49-85.47a8,8,0,0,0-10.561-9.958L232,148.184V133.417L257.541,123.2a44.833,44.833,0,0,1,37.639,2.025Z"/><path d="M192,272a8,8,0,0,0-8-8H152a8,8,0,0,0,0,16h32A8,8,0,0,0,192,272Z"/><path d="M120,280a8,8,0,0,0,0-16H104a8,8,0,0,0,0,16Z"/><path d="M128,208H80a8,8,0,0,0,0,16h48a8,8,0,0,0,0-16Z"/><path d="M48,208H32a8,8,0,0,0,0,16H48a8,8,0,0,0,0-16Z"/><path d="M88,320a8,8,0,0,0,8,8h48a8,8,0,0,0,0-16H96A8,8,0,0,0,88,320Z"/><path d="M40,320a8,8,0,0,0,8,8H64a8,8,0,0,0,0-16H48A8,8,0,0,0,40,320Z"/></svg>
